<svg width="325" height="325" viewBox="0 0 325 325" fill="none" xmlns="http://www.w3.org/2000/svg">
<g filter="url(#filter0_f_1236_13)">
<path d="M298.854 162.646C298.854 237.952 237.806 299 162.5 299C87.1941 299 26.1465 237.952 26.1465 162.646C26.1465 87.3403 87.1941 26.2927 162.5 26.2927C237.806 26.2927 298.854 87.3403 298.854 162.646Z" fill="#010101"/>
<path d="M162.5 301.565C239.223 301.565 301.418 239.369 301.418 162.646C301.418 85.9239 239.223 23.7281 162.5 23.7281C85.7777 23.7281 23.5818 85.9239 23.5818 162.646C23.5818 239.369 85.7777 301.565 162.5 301.565Z" stroke="black" stroke-width="5.12929"/>
</g>
<g filter="url(#filter1_f_1236_13)">
<path d="M214 87H113C99.1929 87 88 98.1929 88 112V214C88 227.807 99.1929 239 113 239H214C227.807 239 239 227.807 239 214V112C239 98.1929 227.807 87 214 87Z" fill="#010101"/>
<path d="M214 83.5H113C97.2599 83.5 84.5 96.2599 84.5 112V214C84.5 229.74 97.2599 242.5 113 242.5H214C229.74 242.5 242.5 229.74 242.5 214V112C242.5 96.2599 229.74 83.5 214 83.5Z" stroke="white" stroke-width="7"/>
</g>
<path d="M121.516 107.75V176H108.953V107.75H121.516ZM143.266 137.141V147.594H118.469V137.141H143.266ZM146.172 107.75V118.25H118.469V107.75H146.172Z" fill="white"/>
<path d="M186.25 215H174.297L174.391 204.547H186.25C189.719 204.547 192.453 203.922 194.453 202.672C196.484 201.391 197.922 199.406 198.766 196.719C199.641 194.031 200.078 190.562 200.078 186.312V175.391C200.078 172.141 199.844 169.375 199.375 167.094C198.906 164.781 198.141 162.906 197.078 161.469C196.016 160.031 194.625 158.969 192.906 158.281C191.188 157.594 189.062 157.25 186.531 157.25H174.062V146.75H186.531C190.469 146.75 194.031 147.391 197.219 148.672C200.406 149.922 203.141 151.766 205.422 154.203C207.734 156.641 209.5 159.656 210.719 163.25C211.938 166.812 212.547 170.891 212.547 175.484V186.312C212.547 190.906 211.938 194.984 210.719 198.547C209.5 202.109 207.734 205.109 205.422 207.547C203.141 209.984 200.375 211.844 197.125 213.125C193.906 214.375 190.281 215 186.25 215ZM181.516 146.75V215H168.953V146.75H181.516Z" fill="white"/>
<defs>
<filter id="filter0_f_1236_13" x="0.717091" y="0.863438" width="323.566" height="323.566" filterUnits="userSpaceOnUse" color-interpolation-filters="sRGB">
<feFlood flood-opacity="0" result="BackgroundImageFix"/>
<feBlend mode="normal" in="SourceGraphic" in2="BackgroundImageFix" result="shape"/>
<feGaussianBlur stdDeviation="10.15" result="effect1_foregroundBlur_1236_13"/>
</filter>
<filter id="filter1_f_1236_13" x="77" y="76" width="173" height="174" filterUnits="userSpaceOnUse" color-interpolation-filters="sRGB">
<feFlood flood-opacity="0" result="BackgroundImageFix"/>
<feBlend mode="normal" in="SourceGraphic" in2="BackgroundImageFix" result="shape"/>
<feGaussianBlur stdDeviation="2" result="effect1_foregroundBlur_1236_13"/>
</filter>
</defs>
</svg>
