<svg width="96" height="96" viewBox="0 0 96 96" fill="none" xmlns="http://www.w3.org/2000/svg">
<g clip-path="url(#clip0_318_61)">
<path d="M48 96C74.5097 96 96 74.5097 96 48C96 21.4903 74.5097 0 48 0C21.4903 0 0 21.4903 0 48C0 74.5097 21.4903 96 48 96Z" fill="url(#paint0_linear_318_61)"/>
<path fill-rule="evenodd" clip-rule="evenodd" d="M21.7275 47.4933C35.7205 41.3968 45.0513 37.3776 49.72 35.4357C63.0502 29.8913 65.82 28.9281 67.6254 28.8963C68.0225 28.8893 68.9103 28.9877 69.4854 29.4544C69.971 29.8484 70.1046 30.3807 70.1686 30.7543C70.2325 31.1279 70.3121 31.9789 70.2488 32.6439C69.5264 40.2338 66.4008 58.6526 64.8106 67.1534C64.1378 70.7504 62.8129 71.9565 61.5303 72.0745C58.7428 72.331 56.6262 70.2324 53.9264 68.4627C49.7018 65.6934 47.3151 63.9695 43.2144 61.2672C38.4753 58.1442 41.5475 56.4277 44.2483 53.6225C44.9551 52.8884 57.2366 41.7174 57.4743 40.704C57.5041 40.5773 57.5317 40.1048 57.251 39.8554C56.9703 39.6059 56.5561 39.6912 56.2572 39.7591C55.8335 39.8552 49.0846 44.316 36.0105 53.1414C34.0949 54.4568 32.3597 55.0977 30.8051 55.0641C29.0912 55.0271 25.7945 54.0951 23.3437 53.2984C20.3377 52.3213 17.9486 51.8047 18.1566 50.1452C18.265 49.2809 19.4553 48.3969 21.7275 47.4933Z" fill="white"/>
</g>
<defs>
<linearGradient id="paint0_linear_318_61" x1="48" y1="0" x2="48" y2="95.288" gradientUnits="userSpaceOnUse">
<stop stop-color="#2AABEE"/>
<stop offset="1" stop-color="#229ED9"/>
</linearGradient>
<clipPath id="clip0_318_61">
<rect width="96" height="96" fill="white"/>
</clipPath>
</defs>
</svg>
