<svg width="96" height="96" viewBox="0 0 96 96" fill="none" xmlns="http://www.w3.org/2000/svg">
<path d="M47.9985 39.2726V57.8617H73.8312C72.6968 63.8399 69.2928 68.9019 64.1874 72.3055L79.7655 84.3928C88.8419 76.0149 94.0783 63.7094 94.0783 49.0912C94.0783 45.6877 93.7729 42.4146 93.2055 39.2731L47.9985 39.2726Z" fill="#4285F4"/>
<path d="M21.0987 57.1361L17.5853 59.8256L5.14868 69.5127C13.0468 85.178 29.2347 96 47.9982 96C60.9579 96 71.8232 91.7236 79.7652 84.3929L64.1871 72.3055C59.9107 75.1855 54.4561 76.9311 47.9982 76.9311C35.5183 76.9311 24.915 68.5094 21.1183 57.1638L21.0987 57.1361Z" fill="#34A853"/>
<path d="M5.14872 26.4873C1.87617 32.9452 0 40.2326 0 47.9997C0 55.7668 1.87617 63.0542 5.14872 69.5122C5.14872 69.5555 21.1199 57.1194 21.1199 57.1194C20.1599 54.2394 19.5925 51.1851 19.5925 47.9992C19.5925 44.8133 20.1599 41.759 21.1199 38.879L5.14872 26.4873Z" fill="#FBBC05"/>
<path d="M47.9992 19.1127C55.0684 19.1127 61.3519 21.5563 66.3701 26.2691L80.1154 12.5238C71.7808 4.75666 60.9594 0 47.9992 0C29.2357 0 13.0468 10.7782 5.14868 26.4873L21.1194 38.88C24.9155 27.5345 35.5193 19.1127 47.9992 19.1127Z" fill="#EA4335"/>
</svg>
